<svg width="30" height="30" viewBox="0 0 24 24" fill="none" xmlns="http://www.w3.org/2000/svg">
<path d="M12 0C5.373 0 0 5.373 0 12C0 17.303 3.438 21.753 8.207 23.385C8.808 23.472 9.025 23.136 9.025 22.846C9.025 22.597 9.014 21.89 9.009 21.038C5.672 21.746 4.968 19.361 4.968 19.361C4.422 17.978 3.633 17.658 3.633 17.658C2.546 17.024 3.719 17.038 3.719 17.038C4.918 17.125 5.545 18.324 5.545 18.324C6.628 20.131 8.333 19.612 9.031 19.311C9.117 18.545 9.414 18.016 9.747 17.729C7.104 17.451 4.311 16.365 4.311 11.646C4.311 10.307 4.834 9.238 5.66 8.445C5.538 8.157 5.134 6.897 5.76 5.253C5.76 5.253 6.773 4.94 9.009 6.577C9.907 6.334 10.897 6.211 11.887 6.206C12.878 6.211 13.867 6.334 14.766 6.577C17.002 4.94 18.013 5.253 18.013 5.253C18.64 6.897 18.236 8.157 18.114 8.445C18.94 9.238 19.463 10.307 19.463 11.646C19.463 16.382 16.663 17.445 14.009 17.718C14.4 18.086 14.768 18.768 14.768 19.847C14.768 21.491 14.754 22.687 14.754 22.847C14.754 23.139 14.968 23.48 15.577 23.385C20.356 21.749 24 17.303 24 12C24 5.373 18.627 0 12 0Z" fill="white"/>
</svg>